# xmcd
# 
# Track frame offsets:
#     150
#     19419
#     36314
#     49547
#     65044
#     78298
#     100032
#     112563
#     132027
#     150505
#     170019
#     187194
#     200703
#     221113
#     255163
#     276180
# 
# Disc length: 3974
# 
# Revision: 4
# Processed by: cddbd v1.5.2PL0 Copyright (c) Steve Scherf et al.
# Submitted via: fre:ac v1.0.31
# 
DISCID=dc0f8410
DTITLE=Broadside - Best of Broadside 1962-1988 - Disc 5
DYEAR=2000
DGENRE=Folk
TTITLE0=Burn, Baby, Burn - Rev. FD Kirkpatrick and Jim Collier
TTITLE1=The Cities are Burning - Rev. FD Kirkpatrick and Jim Collier
TTITLE2=Nothing But His Blood - Rev. FD Kirkpatrick
TTITLE3=You're Just A Laughing Fool - Rev. FD Kirkpatrick and Jim Collier
TTITLE4=Time Is Running Out - Wendy Smith
TTITLE5=But If I Ask Them - Sis Cunningham
TTITLE6=Ragamuffin Minstrel Boy - Sammy Walker
TTITLE7=Changes - Phil Ochs
TTITLE8=Bound for Glory - Sammy Walker and Phil Ochs
TTITLE9=Victor Jara - Arlo Guthrie
TTITLE10=We Will Never Give Up - Kristin Lems
TTITLE11=Inez - Bev Grant and the Human Condition
TTITLE12=Gonna Be An Engineer - Peggy Seeger
TTITLE13=Don't Talk To Strangers - Chris Gaylord
TTITLE14=Catcher In the Rye - Sammy Walker
TTITLE15=The Time WIll Come - Elaine White
EXTD=This is clearly folk.
EXTT0=Rev F. D. Kirkpartrick and Jim Collier
EXTT1=Rev F. D. Kirkpartick and Jim Collier
EXTT2=
EXTT3=
EXTT4=
EXTT5=
EXTT6=
EXTT7=
EXTT8=
EXTT9=
EXTT10=
EXTT11=
EXTT12=
EXTT13=
EXTT14=
EXTT15=
PLAYORDER=
